<svg width="100%" height="100%" id="svg" viewBox="0 0 1440 590" xmlns="http://www.w3.org/2000/svg" class="transition duration-300 ease-in-out delay-150"><defs><linearGradient id="gradient" x1="0%" y1="50%" x2="100%" y2="50%"><stop offset="5%" stop-color="#7bdcb5"></stop><stop offset="95%" stop-color="#8ED1FC"></stop></linearGradient></defs><path d="M 0,600 L 0,150 C 89.16746411483251,160.54545454545456 178.33492822966502,171.0909090909091 281,155 C 383.665071770335,138.9090909090909 499.82775119617236,96.18181818181819 605,79 C 710.1722488038276,61.81818181818182 804.3540669856459,70.18181818181817 888,92 C 971.6459330143541,113.81818181818183 1044.7559808612439,149.09090909090912 1135,161 C 1225.2440191387561,172.90909090909088 1332.622009569378,161.45454545454544 1440,150 L 1440,600 L 0,600 Z" stroke="none" stroke-width="0" fill="url(#gradient)" fill-opacity="0.53" class="transition-all duration-300 ease-in-out delay-150 path-0"></path><defs><linearGradient id="gradient" x1="0%" y1="50%" x2="100%" y2="50%"><stop offset="5%" stop-color="#7bdcb5"></stop><stop offset="95%" stop-color="#8ED1FC"></stop></linearGradient></defs><path d="M 0,600 L 0,350 C 100.06698564593302,307.1004784688995 200.13397129186603,264.20095693779905 305,284 C 409.86602870813397,303.79904306220095 519.531100478469,386.29665071770336 610,396 C 700.468899521531,405.70334928229664 771.7416267942583,342.6124401913875 848,328 C 924.2583732057417,313.3875598086125 1005.5023923444976,347.25358851674645 1105,359 C 1204.4976076555024,370.74641148325355 1322.248803827751,360.37320574162675 1440,350 L 1440,600 L 0,600 Z" stroke="none" stroke-width="0" fill="url(#gradient)" fill-opacity="1" class="transition-all duration-300 ease-in-out delay-150 path-1"></path></svg>